/* XPM */
static char *_08afbe5d99940a092ff4a6f5a81d540RwQQctTpjdJKGgsb[] = {
/* columns rows colors chars-per-pixel */
"48 48 5 1 ",
"  c black",
". c #B71C1C",
"X c #E53935",
"o c #EF5350",
"O c #00B7EF",
/* pixels */
"OOOOOOOOOOOOOOOOOOOOOOOOOOOOOOOOOOOOOOOOOOOOOOOO",
"OOOOOOOOOOOOOOOOOOOOOOOOOOOOOOOOOOOOOOOOOOOOOOOO",
"OOOOOOOOOOOOOOOOOOOOOOOOOOOOOOOOOOOOOOOOOOOOOOOO",
"OOOOOOOOOOOOOOOOOOOOOOOOOOOOO  OOOOOOOOOOOOOOOOO",
"OOOOOOOOOOOOOOO  OOOOOOOOOOO XX OOOOOOOOOOOOOOOO",
"OOOOOOOOOOOOOO .. OOOOOOOOO XXXX OOOOOOOOOOOOOOO",
"OOOOOOOOOOOOO .XX. OO  OOOO XXXX OOOOOOOOOOOOOOO",
"OOOOOOOOOOOOO .XX. O XX OOO XXXo OOOOOOOOOOOOOOO",
"OOOOOOOOOOOOO .XX.  XX. OO  XXoo OOOOOOOOOOOOOOO",
"OOOOOOOOOOOOO .XX. XX. OO XXXXXX OOOOOOOOOOOOOOO",
"OOOOOOOOOOOOO .XX.XX. OO XXXXXX OOOOOO  OOOOOOOO",
"OOOOOOOOOOOOO .XXXX. OO XXXXoo OOOOOO XX OOOOOOO",
"OOOOOOOOOOOOO .XXX. OOO XXXoo OOOOOOO XX OOOOOOO",
"OOOOOOOOOOOOO .XXX OOOO XXoXX OOOOOOO XX OOOOOOO",
"OOOOOOOOOOOOO .XXX OOOO XXXXX OOOOOOO XX OOOOOOO",
"OOOOOOOOOOOOO .XXX OOOO XXXXX OOOOOOO XX OOOOOOO",
"OOOOOOOOOOOOO .XoX OOOO XXXXX OOOOOO XXXX   OOOO",
"OOOOOOOOO  OO .XoX OOOO XXXXX OOOOO XXXXXXX OOOO",
"OOOOOOOO .. O .XoX OOOO XXXXo OOOO XXXXoo   OOOO",
"OOOOOOO .XX.  .XoX OOOO XXXoX OOO XXXooo OOOOOOO",
"OOOOOOO .XXX. .XoX OOOO XXoXX OO XXXooo OOOOOOOO",
"OOOOOOOO .XXX..XXX OOOO XXoXX OO XXooo OOOOOOOOO",
"OOOOOOOOO .XXXXXXX OOOO XXXXX OO XXXX OOOOOOOOOO",
"OOOOOOOOOO .XXXXoX OOOO XXXXX OO XXXX       OOOO",
"OOOOOOOOOOO .XXoXX OOO XXXXXX OO XXXXoXXXooX OOO",
"OOOOOOOOOOOO .XXXXX O XXXXXXX OO XXXXXoooXXXX OO",
"OOOOOOOOOOOOO .XXXXX XXXXXXXX OO XXXXXXXXXXXX OO",
"OOOOOOOOOOOOOO ooXXXXXXXXXXXXX  XXXXXXXooooX OOO",
"OOOOOOOOOOOOOOO .XXXXXoXXXXXXXXXXXXXXXo     OOOO",
"OOOOOOOOOOOOOOOO ..XXXXXXXXXXXXXXoooooo OOOOOOOO",
"OOOOOOOOOOOOOOOOO .XXXX........         OOOOOOOO",
"OOOOOOOOOOOOOOOOOO .XXX.       OOOOOOOOOOOOOOOOO",
"OOOOOOOOOOOOOOOOOO .oXX. OOOOOOOOOOOOOOOOOOOOOOO",
"OOOOOOOOOOOOOOOOOO .XXX. OOOOOOOOOOOOOOOOOOOOOOO",
"OOOOOOOOOOOOOOOOOO .XXX. OOOOOOOOOOOOOOOOOOOOOOO",
"OOOOOOOOOOOOOOOOOO .oXX. OOOOOOOOOOOOOOOOOOOOOOO",
"OOOOOOOOOOOOOOOOOO .XXX. OOOOOOOOOOOOOOOOOOOOOOO",
"OOOOOOOOOOOOOOOOOO .XXX. OOOOOOOOOOOOOOOOOOOOOOO",
"OOOOOOOOOOOOOOOOOO .XoX. OOOOOOOOOOOOOOOOOOOOOOO",
"OOOOOOOOOOOOOOOOOO .XXX. OOOOOOOOOOOOOOOOOOOOOOO",
"OOOOOOOOOOOOOOOOOOO ... OOOOOOOOOOOOOOOOOOOOOOOO",
"OOOOOOOOOOOOOOOOOOOO   OOOOOOOOOOOOOOOOOOOOOOOOO",
"OOOOOOOOOOOOOOOOOOOOOOOOOOOOOOOOOOOOOOOOOOOOOOOO",
"OOOOOOOOOOOOOOOOOOOOOOOOOOOOOOOOOOOOOOOOOOOOOOOO",
"OOOOOOOOOOOOOOOOOOOOOOOOOOOOOOOOOOOOOOOOOOOOOOOO",
"OOOOOOOOOOOOOOOOOOOOOOOOOOOOOOOOOOOOOOOOOOOOOOOO",
"OOOOOOOOOOOOOOOOOOOOOOOOOOOOOOOOOOOOOOOOOOOOOOOO",
"OOOOOOOOOOOOOOOOOOOOOOOOOOOOOOOOOOOOOOOOOOOOOOOO"
};
