/* XPM */
static char *_a61cd05b6c94a56c5f20713a6bd3f22S88QOWqXgzeWCXux[] = {
/* columns rows colors chars-per-pixel */
"48 48 12 1 ",
"  c black",
". c #6E3D0C",
"X c #C41408",
"o c #94571B",
"O c #AB692B",
"+ c #E34236",
"@ c #45AD18",
"# c #78E048",
"$ c #F59E33",
"% c #EDC213",
"& c #00B7EF",
"* c #F5D193",
/* pixels */
"&&&&&&&&&&&&&&&&&&&&&&&&&&&&&&&&&&&&&&&&&&&&&&&&",
"&&&&&&&&&&&&&&&&&&&&&&&&&&&&&&&&&&&&&&&&&&&&&&&&",
"&&&&&&&&&&&&&&&&&&&&&&&&&&&&&&&&&&&&&&&&&&&&&&&&",
"&&&&&&&&&&&&&&&&&            &&&&&&&&&&&&&&&&&&&",
"&&&&&&&&&&&&&&   $$$$$$$$$$$$   &&&&&&&&&&&&&&&&",
"&&&&&&&&&&&&  $$$$$$$*$$$$O$$$$$  &&&&&&&&&&&&&&",
"&&&&&&&&&&& $$$$$$$$$$$$$$OOO*$$$$ &&&&&&&&&&&&&",
"&&&&&&&&&& $$$$$$$$$$$$$$$$$OO$$$$$ &&&&&&&&&&&&",
"&&&&&&&&& $$$$$$$$$$$$$$$$$$$OOO$$$$ &&&&&&&&&&&",
"&&&&&&&& $$$$$$$$$$$$$$$$$$$$$$OO$$$$ &&&&&&&&&&",
"&&&&&&&& $$$$$$$$$*$$$$$$$$$$$$$OO$*$ &&&&&&&&&&",
"&&&&&&& O$$$$$$$$$$$$$$$$$$$$$$$$OO$$$ &&&&&&&&&",
"&&&&&&& O$*$$$$$$$$$$$$$$$$$$$$$$$$O$$ &&&&&&&&&",
"&&&&&&& OOOO$$$$$$$$$$$$$*$$$$$$$$$OO$ &&&&&&&&&",
"&&&&&&& O$$$$$$OOOOOO$$$$$$$$$$$$$$$$$ &&&&&&&&&",
"&&&&&&&& OOOOOOOOOOOOOOOOOOOOOOOOOOOO &&&&&&&&&&",
"&&&&&&&&&                            &&&&&&&&&&&",
"&&&&&&&&& ++XXXXXXXX+++++++++++++++X &&&&&&&&&&&",
"&&&&&&&&&                    +X      &&&&&&&&&&&",
"&&&&&&&& ooooo %%%%%%%%%% .. +X oooo &&&&&&&&&&&",
"&&&&&&& ooooooo %%%%%%%% .oo +X o.... &&&&&&&&&&",
"&&&&&&& ....oooo %%%%%% ..ooo  oooooo &&&&&&&&&&",
"&&&&&&& ooooooooo %%%% ..oooooooooooo &&&&&&&&&&",
"&&&&&&&&           %%                &&&&&&&&&&&",
"&&&&&&&& ##########  @@#############  &&&&&&&&&&",
"&&&&&&&& #@@  #####@@@#######@##@@@@## &&&&&&&&&",
"&&&&&&&& @@ $O ###    ##    @@     @## &&&&&&&&&",
"&&&&&&&&&  $$OO   $OO   $$$$  $$$OO   &&&&&&&&&&",
"&&&&&&&&& $$$$$$$$$$OOOO$$$$$$$$$$OO &&&&&&&&&&&",
"&&&&&&&&& $$$$$$$$$$$$$$$$$$$OOOOOOO &&&&&&&&&&&",
"&&&&&&&&&& $$$$$$$$$$$OOOOOOOOOOOOO &&&&&&&&&&&&",
"&&&&&&&&&&&                        &&&&&&&&&&&&&",
"&&&&&&&&&&&&&&&&&&&&&&&&&&&&&&&&&&&&&&&&&&&&&&&&",
"&&&&&&&&&&&&&&&&&&&&&&&&&&&&&&&&&&&&&&&&&&&&&&&&",
"&&&&&&&&&&&&&&&&&&&&&&&&&&&&&&&&&&&&&&&&&&&&&&&&",
"&&&&&&&&&&&&&&&&&&&&&&&&&&&&&&&&&&&&&&&&&&&&&&&&",
"&&&&&&&&&&&&&&&&&&&&&&&&&&&&&&&&&&&&&&&&&&&&&&&&",
"&&&&&&&&&&&&&&&&&&&&&&&&&&&&&&&&&&&&&&&&&&&&&&&&",
"&&&&&&&&&&&&&&&&&&&&&&&&&&&&&&&&&&&&&&&&&&&&&&&&",
"&&&&&&&&&&&&&&&&&&&&&&&&&&&&&&&&&&&&&&&&&&&&&&&&",
"&&&&&&&&&&&&&&&&&&&&&&&&&&&&&&&&&&&&&&&&&&&&&&&&",
"&&&&&&&&&&&&&&&&&&&&&&&&&&&&&&&&&&&&&&&&&&&&&&&&",
"&&&&&&&&&&&&&&&&&&&&&&&&&&&&&&&&&&&&&&&&&&&&&&&&",
"&&&&&&&&&&&&&&&&&&&&&&&&&&&&&&&&&&&&&&&&&&&&&&&&",
"&&&&&&&&&&&&&&&&&&&&&&&&&&&&&&&&&&&&&&&&&&&&&&&&",
"&&&&&&&&&&&&&&&&&&&&&&&&&&&&&&&&&&&&&&&&&&&&&&&&",
"&&&&&&&&&&&&&&&&&&&&&&&&&&&&&&&&&&&&&&&&&&&&&&&&",
"&&&&&&&&&&&&&&&&&&&&&&&&&&&&&&&&&&&&&&&&&&&&&&&&"
};
