/* XPM */
static char *dc1717fd2eb24e92c7aebc61aa357243fM3V4U0zjfpVjLFP[] = {
/* columns rows colors chars-per-pixel */
"48 48 23 1 ",
"  c black",
". c #3D3B3B",
"X c #403F3F",
"o c #663F2F",
"O c #453C5E",
"+ c #483269",
"@ c #494A48",
"# c #5E5B5B",
"$ c #785F41",
"% c #666253",
"& c #63615D",
"* c #564D70",
"= c #696E64",
"- c #ED1C24",
"; c #B57945",
": c #A18460",
"> c #A19975",
", c #A3A379",
"< c #796AA6",
"1 c #00B7EF",
"2 c #36C7C4",
"3 c #B9B0D1",
"4 c #F2F0FA",
/* pixels */
"11111111111111111111111++11111111111111111111111",
"111111111111111111++1++33++1++111111111111111111",
"11111111111111111+<<+<<3334+44+11111111111111111",
"111111111111111111+<<<<333444+111111111111111111",
"1111111111111111111+<OOOOOO4+1111111111111111111",
"111111111111111111+++<3*333+++111111111111111111",
"11111111111111111+<<<<* *33344+11111111111111111",
"1111111111111111+<<<<<* *333344+1111111111111111",
"1111111111111111+<<<<* *3333344+1111111111111111",
"111111111111111+<<++<++*33*++44+1111111111111111",
"111111111111111+<+34+34+*++3344+1111111111111111",
"111111111111111+<+34+34++333444+1111111111111111",
"111111111111111+++34+34++44444++1111111111111111",
"11111111111111=@@+34+34+++++++++1111111111111111",
"1111111111111=@+<+34+34+34+34+@@=111111111111111",
"111111111111=@1+<<34+34+34+34+11@=11111111111111",
"111111111111=@11++++1++1++1++111@=11111111111111",
"11111111111=@1111111111111111111@=11111111111111",
"11111111111=@11111111111111111111@=1111111111111",
"11111111111=@11111111111111111111@=1111111111111",
"11111111111=@11111111111111111111@=1111111111111",
"11111111111=@11111111111111111111@=1111111111111",
"11111111111=@11111111111111111111@=1111111111111",
"11111111111=@1111111111111111111@=11111111111111",
"111111111111@$::::::::::::::::11@=11111111111111",
"111111111111::&&&&&&&&&&&&&&&&::::11111111111111",
"11111111111&&&>.--.->->-.-..--&--.:1111111111111",
"111111111111.#>.-..--->-.-.-..->-.11111111111111",
"111111111111.>>.--.->->---.-..->-.11111111111111",
"111111111111.>.....>>>>>>.....>>>.11111111111111",
"111111111111.>---.->->-->-.-.--->.11111111111111",
"111111111111.>-.-.->->->>--...->>.11111111111111",
"111111111111.>--..--->-->-.-..->>.11111111111111",
"111111111111.>....>>>>>>>.....>>>.11111111111111",
"111111111111.>....>>>>>>>.....>>>.11111111111111",
"111111111111.>....>>>>>>>.....>>>.11111111111111",
"111111111111.>....>>>>>>>.....>>..11111111111111",
"111111111111......>>>>>>....,,>>..11111111111111",
"1111111111111.....ooooooooo.,,>>.111111111111111",
"1111111111111.....o;;;o;;;o.,,>>.111111111111111",
"1111111111111.....o;;;o;;;o.,,>>.111111111111111",
"1111111111111.....o;2;o;2;o.,,>>.111111111111111",
"1111111111111.....o;;;o;;;o.,,>>.111111111111111",
"1111111111111.,...o;;;o;;;o.,,,>.111111111111111",
"1111111111111>>...o;;;o;;;o,,,>>>111111111111111",
"1111111111111%>>>>o;;;o;;;o,>>%%%111111111111111",
"11111111111111%%%%%ooooooooX%%111111111111111111",
"111111111111111111111111111111111111111111111111"
};
