/* XPM */
static char *_e9d4315d1d24b0db9feb88d67afd624s4ZkceyZEQFB2uB6[] = {
/* columns rows colors chars-per-pixel */
"48 48 10 1 ",
"  c black",
". c #5C3525",
"X c #ED1C24",
"o c #9C5A3C",
"O c #FFF200",
"+ c #4D6DF3",
"@ c #00B7EF",
"# c #709AD1",
"$ c #99D9EA",
"% c white",
/* pixels */
"@@@@@@@@@@@@@@@@@@@@@@@@@@@@@@@@@@@@@@@@@@@@@@@@",
"@@@@@@@@@@@@@@@@@@@@@@@@@@@@@@@@@@@@@@@@@@@@@@@@",
"@@@@@@@@@@@@@@@@@@@@@@@@@@@@@@@@@@@@@@@@@@@@@@@@",
"@@@@@@@@@@@@@@@@@@@@@@@@@@@@@@@@@@@@@@@@@@@@@@@@",
"@@@@@@@@@@@@@@@@@@@@@@@@@@@@@@@@@@@@@@@@@@@@@@@@",
"@@@@@@@@@@@@@@@@@@@@@@@@@@@@@@@@@@@@@@@@@@@@@@@@",
"@@@@@@@@@@@@@@@..@@@@@@@@..@@@@@@@@@@@@@@@@@@@@@",
"@@@@@@@@@@@@@@@oo@@@@@@@@oo@@@@@@@@@@@@@@@@@@@@@",
"@@@@@@@@@@@@@@@ooo..@@..ooo@@@@@@@@@@@@@@@@@@@@@",
"@@@@@@@@@@@@@@@ooo..@@..ooo@@@@@@@@@@@@@@@@@@@@@",
"@@@@@@@@@@@@@@@XXXXX@@XXXXX@@@@@@@@@@@@@@@@@@@@@",
"@@@@@@@@@@@@@@@XXXXX@@XXXXX@@@@@@@@@@@@@@@@@@@@@",
"@@@@@@@@@@@@@@@$$$$$@@$$$$$@@@@@@@@@@@@@@@@@@@@@",
"@@@@@@@@@@@@@@@$$$$$@@$$$$$@@@@@@@@@@@@@@@@@@@@@",
"@@@@@@@@@@@@@@@$$$$$@@$$$$$@@@@@@@@@@@@@@@@@@@@@",
"@@@@@@@@@@@@@@@$$$$$@@$$$$$@@@@@@@@@@@@@@@@@@@@@",
"@@@@@@@@@@@@@@@$$$$$@@$$$$$@@@@@@@@@@@@@@@@@@@@@",
"@@@@@@@@@@@@@@@$$$$$@@$$$$$@@@@@@@@@@@@@@@@@@@@@",
"@@@@@@@@@@@@@@@%%$$$@@%%$$$@@@@@@@@@@@@@@@@@@@@@",
"@@@@@@@@@@@@@@@%%$$$@@%%$$$@@@@@@@@@@@@@@@@@@@@@",
"@XXXXXX@@@@@@@@%%$$$@@%%$$$@@@@@@@@@@@@@@@@@@@@@",
"@XXXXXX@@@@@@@@XXXXX@@XXXXX@@@@@@@@@@@@@@@@@@@@@",
"@XXXX@@@@@@@@XXXXXXXXXXXXXXXX@@@@@@@@@@@@@@@@@@@",
"@XXXX@@@@@@@@XXXXXXXXXXXXXXXX@@@@@@@@@@@@@@@@@@@",
"@XXXXXX@@###########XX###########@@@@@@@@@@@@@@@",
"@XXXXXX@@###########XX###########@@@@@@@@@@@@@@@",
"@@@XX@@XX@@####################@@XX@@@@@@@@@@@@@",
"@@@XX@@XX@@####################@@XX@@@@@@@@@@@@@",
"@@@@@XX@@@@####################@@XX@@@@@@@@@@@@@",
"@@@@@XX@@@@ ++++++++++++++++++ @@XX@@@@@@@@@@@@@",
"@@@@@@@@@@@ ++++++++++++++++++ XX@@@@@@@@@@@@@@@",
"@@@@@@@@@@@ ++++++++++++++++++ XX@@@@@@@@@@@@@@@",
"@@@@@@@@@@@ ++++++++++++++++++ XXXXXX@@@@@@@@@@@",
"@@@@@@@@@@@ ++++++++++++++++++ XXXXXX@@@@@@@@@@@",
"@@@@@@@@@@@ ++++++++++++++++++ XXXX@@@@@@@@@@@@@",
"@@@@@@@@@@@ ++   +   O   +  ++ XXXX@@@@@@@@@@@@@",
"@@@@@@@@@@@ ++++++++++++++++++ XXXXXX@@@@@@@@@@@",
"@@@@@@@@@@@ ++++++++++++++++++ XXXXXX@@@@@@@@@@@",
"@@@@@@@@@@@ ++++++++++++++++++ @@@@@@@@@@@@@@@@@",
"@@@@@@@@@@@@  ++++++++++++++  @@@@@@@@@@@@@@@@@@",
"@@@@@@@@@@@@@ ++++++++++++++ @@@@@@@@@@@@@@@@@@@",
"@@@@@@@@@@@@@@ +          + @@@@@@@@@@@@@@@@@@@@",
"@@@@@@@@@@@@@@ + @@@@@@@@ + @@@@@@@@@@@@@@@@@@@@",
"@@@@@@@@@@@@@@ X @@@@@@@@ X @@@@@@@@@@@@@@@@@@@@",
"@@@@@@@@@@@@@@ X @@@@@@@@ X @@@@@@@@@@@@@@@@@@@@",
"@@@@@@@@@@@@@@ X @@@@@@@@ X @@@@@@@@@@@@@@@@@@@@",
"@@@@@@@@@@@@@@@ @@@@@@@@@@ @@@@@@@@@@@@@@@@@@@@@",
"@@@@@@@@@@@@@@@@@@@@@@@@@@@@@@@@@@@@@@@@@@@@@@@@"
};
