/* XPM */
static char *b91d796d1bde4275c021fec6a96f12d3Y1gCElBwp4Qx3opB[] = {
/* columns rows colors chars-per-pixel */
"48 48 10 1 ",
"  c black",
". c #5C3525",
"X c #ED1C24",
"o c #9C5A3C",
"O c #FFF200",
"+ c #4D6DF3",
"@ c #00B7EF",
"# c #709AD1",
"$ c #99D9EA",
"% c white",
/* pixels */
"@@@@@@@@@@@@@@@@@@@@@@@@@@@@@@@@@@@@@@@@@@@@@@@@",
"@@@@@@@@@@@@@@@@@@@@@@@@@@@@@@@@@@@@@@@@@@@@@@@@",
"@@@@@@@@@@@@@@@@@@@@@@@@@@@@@@@@@@@@@@@@@@@@@@@@",
"@@@@@@@@@@@@@@@@@@@@@@@@@@@@@@@@@@@@@@@@@@@@@@@@",
"@@@@@@@@@@@@@@@@@@@@@@@@@@@@@@@@@@@@@@@@@@@@@@@@",
"@@@@@@@@@@@@@@@@@@@@@@@@@@@@@@@@@@@@@@@@@@@@@@@@",
"@@@@@@@@@@@@@@@@@@@@@..@@@@@@@@..@@@@@@@@@@@@@@@",
"@@@@@@@@@@@@@@@@@@@@@oo@@@@@@@@oo@@@@@@@@@@@@@@@",
"@@@@@@@@@@@@@@@@@@@@@ooo..@@..ooo@@@@@@@@@@@@@@@",
"@@@@@@@@@@@@@@@@@@@@@ooo..@@..ooo@@@@@@@@@@@@@@@",
"@@@@@@@@@@@@@@@@@@@@@XXXXX@@XXXXX@@@@@@@@@@@@@@@",
"@@@@@@@@@@@@@@@@@@@@@XXXXX@@XXXXX@@@@@@@@@@@@@@@",
"@@@@@@@@@@@@@@@@@@@@@$$$$$@@$$$$$@@@@@@@@@@@@@@@",
"@@@@@@@@@@@@@@@@@@@@@$$$$$@@$$$$$@@@@@@@@@@@@@@@",
"@@@@@@@@@@@@@@@@@@@@@$$$$$@@$$$$$@@@@@@@@@@@@@@@",
"@@@@@@@@@@@@@@@@@@@@@$$$$$@@$$$$$@@@@@@@@@@@@@@@",
"@@@@@@@@@@@@@@@@@@@@@$$$$$@@$$$$$@@@@@@@@@@@@@@@",
"@@@@@@@@@@@@@@@@@@@@@$$$$$@@$$$$$@@@@@@@@@@@@@@@",
"@@@@@@@@@@@@@@@@@@@@@$$$%%@@$$$%%@@@@@@@@@@@@@@@",
"@@@@@@@@@@@@@@@@@@@@@$$$%%@@$$$%%@@@@@@@@@@@@@@@",
"@@@@@@@@@@@@@@@@@@@@@$$$%%@@$$$%%@@@@@@@@XXXXXX@",
"@@@@@@@@@@@@@@@@@@@@@XXXXX@@XXXXX@@@@@@@@XXXXXX@",
"@@@@@@@@@@@@@@@@@@@XXXXXXXXXXXXXXXX@@@@@@@@XXXX@",
"@@@@@@@@@@@@@@@@@@@XXXXXXXXXXXXXXXX@@@@@@@@XXXX@",
"@@@@@@@@@@@@@@@###########XX###########@@XXXXXX@",
"@@@@@@@@@@@@@@@###########XX###########@@XXXXXX@",
"@@@@@@@@@@@@@XX@@####################@@XX@@XX@@@",
"@@@@@@@@@@@@@XX@@####################@@XX@@XX@@@",
"@@@@@@@@@@@@@XX@@####################@@@@XX@@@@@",
"@@@@@@@@@@@@@XX@@ ++++++++++++++++++ @@@@XX@@@@@",
"@@@@@@@@@@@@@@@XX ++++++++++++++++++ @@@@@@@@@@@",
"@@@@@@@@@@@@@@@XX ++++++++++++++++++ @@@@@@@@@@@",
"@@@@@@@@@@@XXXXXX ++++++++++++++++++ @@@@@@@@@@@",
"@@@@@@@@@@@XXXXXX ++++++++++++++++++ @@@@@@@@@@@",
"@@@@@@@@@@@@@XXXX ++++++++++++++++++ @@@@@@@@@@@",
"@@@@@@@@@@@@@XXXX ++  +   O   +   ++ @@@@@@@@@@@",
"@@@@@@@@@@@XXXXXX ++++++++++++++++++ @@@@@@@@@@@",
"@@@@@@@@@@@XXXXXX ++++++++++++++++++ @@@@@@@@@@@",
"@@@@@@@@@@@@@@@@@ ++++++++++++++++++ @@@@@@@@@@@",
"@@@@@@@@@@@@@@@@@@  ++++++++++++++  @@@@@@@@@@@@",
"@@@@@@@@@@@@@@@@@@@ ++++++++++++++ @@@@@@@@@@@@@",
"@@@@@@@@@@@@@@@@@@@@ +          + @@@@@@@@@@@@@@",
"@@@@@@@@@@@@@@@@@@@@ + @@@@@@@@ + @@@@@@@@@@@@@@",
"@@@@@@@@@@@@@@@@@@@@ X @@@@@@@@ X @@@@@@@@@@@@@@",
"@@@@@@@@@@@@@@@@@@@@ X @@@@@@@@ X @@@@@@@@@@@@@@",
"@@@@@@@@@@@@@@@@@@@@ X @@@@@@@@ X @@@@@@@@@@@@@@",
"@@@@@@@@@@@@@@@@@@@@@ @@@@@@@@@@ @@@@@@@@@@@@@@@",
"@@@@@@@@@@@@@@@@@@@@@@@@@@@@@@@@@@@@@@@@@@@@@@@@"
};
