/* XPM */
static char *_4751999def149fdaf1fe171a3ef85c6B9Pm2c53T8KbCHkE[] = {
/* columns rows colors chars-per-pixel */
"48 48 11 1 ",
"  c black",
". c #3E2723",
"X c #24313C",
"o c #2E7D32",
"O c #00695C",
"+ c #FF8F00",
"@ c #009688",
"# c #00B7EF",
"$ c #EF9A9A",
"% c #FFF59D",
"& c white",
/* pixels */
"################################################",
"################################################",
"################################################",
"################################################",
"################################################",
"###################OOOOOOO######################",
"##################OOOOOOOOOO####################",
"###############oooooO###OOOOO###################",
"#############oooOOOooo##      ##################",
"############ooOO#OOOoo  @OOOOO   ###############",
"##########  oO###O##OooO@@@@@@@   ##############",
"###########o ###OO###ooO@@@@@@   @ #############",
"##########ooo #  O###oo@@@@@    @@@ ############",
"#########  #####O  ##O@      %%% @@@ ###########",
"##########  ### O### O      %%+%% @@ ###########",
"#########o###### ### O@@@ %%%+++%% @@ ##########",
"########   ####OO ## O@@@ %%%+++%% @@ ######## #",
"#########o#####O#### @@@@ %%%%+%%%% @@ ###### O ",
"#########o####   #### @@@ %%%%%%%%% @@ ##### OO ",
"########   ###OO##### @@@ %%%%%%%%% @@ #### OOO ",
"#########o####O####### @@@ %%%%%%%% O@ ### OOO #",
"###################### @@@@ %%%%%  OO@@   OOO ##",
"####################### @@@O     OOO@@@ OOOO ###",
"#############   ####### @@@@OOOOOO@@@@@ OOO ####",
"############X@@@ ####### @@@@@@@@@@@@@@ OOO ####",
"############ @@       ## @@@@@@@@@@   @ OO #####",
"#############X@OO@@@@@    @@@@     && @@  ######",
"#############    @@@@@@@@@@@@ && &&   @@ #######",
"#################   @OOO@@@@@       OO@@ #######",
"####################      @@@ ..  . @@@@ #######",
"########################   @@ . $$   @@@ #######",
"######################### @@@ . $  && @@ #######",
"######################### @@@ .  &&  O @ #######",
"######################### @@@ . &  @O@@@ #######",
"######################### @@@@ & @@@@@@@ #######",
"########################## @@@@ @@@@@@@@ #######",
"########################## @@O@@@O@@@@@@ #######",
"########################## @@@O@O@@@@@@ ########",
"########################## @@@@O@@@@@@@ ########",
"########################## @@@@@@@@@@@@ ########",
"########################### @@@@@@@@@@ #########",
"########################### @@OOOOO@@  #########",
"########################### @        O #########",
"########################## @@ ##### OO #########",
"########################## @@ ##### OO #########",
"######################### @@ ####### O #########",
"######################### @@ ####### O #########",
"#########################   ######### ##########"
};
