/* XPM */
static char *a981a977bb954fc59a9d2cb1d074633aYgZHv23mApNvfuHu[] = {
/* columns rows colors chars-per-pixel */
"48 48 11 1 ",
"  c black",
". c #3E2723",
"X c #24313C",
"o c #2E7D32",
"O c #00695C",
"+ c #FF8F00",
"@ c #009688",
"# c #00B7EF",
"$ c #EF9A9A",
"% c #FFF59D",
"& c white",
/* pixels */
"################################################",
"################################################",
"################################################",
"################################################",
"################################################",
"######################OOOOOOO###################",
"####################OOOOOOOOOO##################",
"###################OOOOO###Oooooo###############",
"##################      ##oooOOOooo#############",
"###############   OOOOO@  ooOOO#OOoo############",
"##############   @@@@@@@OooO##O###Oo  ##########",
"############# @   @@@@@@Ooo###OO### o###########",
"############ @@@    @@@@@oo###O  # ooo##########",
"########### @@@ %%%      @O##  O#####  #########",
"########### @@ %%+%%      O ###O ###  ##########",
"########## @@ %%+++%%% @@@O ### ######o#########",
"# ######## @@ %%+++%%% @@@O ## OO####   ########",
" O ###### @@ %%%%+%%%% @@@@ ####O#####o#########",
" OO ##### @@ %%%%%%%%% @@@ ####   ####o#########",
" OOO #### @@ %%%%%%%%% @@@ #####OO###   ########",
"# OOO ### @O %%%%%%%% @@@ #######O####o#########",
"## OOO   @@OO  %%%%% @@@@ ######################",
"### OOOO @@@OOO     O@@@ #######################",
"#### OOO @@@@@OOOOOO@@@@ #######   #############",
"#### OOO @@@@@@@@@@@@@@ ####### @@@X############",
"##### OO @   @@@@@@@@@@ ##       @@ ############",
"######  @@ &&     @@@@    @@@@@OO@X#############",
"####### @@   && && @@@@@@@@@@@@    #############",
"####### @@OO       @@@@@OOO@   #################",
"####### @@@@ .  .. @@@      ####################",
"####### @@@   $$ . @@   ########################",
"####### @@ &&  $ . @@@ #########################",
"####### @ O  &&  . @@@ #########################",
"####### @@@O@  & . @@@ #########################",
"####### @@@@@@@ & @@@@ #########################",
"####### @@@@@@@@ @@@@ ##########################",
"####### @@@@@@O@@@O@@ ##########################",
"######## @@@@@@O@O@@@ ##########################",
"######## @@@@@@@O@@@@ ##########################",
"######## @@@@@@@@@@@@ ##########################",
"######### @@@@@@@@@@ ###########################",
"#########  @@OOOOO@@ ###########################",
"######### O        @ ###########################",
"######### OO ##### @@ ##########################",
"######### OO ##### @@ ##########################",
"######### O ####### @@ #########################",
"######### O ####### @@ #########################",
"########## #########   #########################"
};
