/* XPM */
static char *_fe93f39c49549f5b6d9a2c0390374abEzmZVrbTOT6TOei3[] = {
/* columns rows colors chars-per-pixel */
"48 48 8 1 ",
"  c black",
". c #24313C",
"X c #2E7D32",
"o c #00695C",
"O c #009688",
"+ c #00B7EF",
"@ c #00B8EF",
"# c #03A9F4",
/* pixels */
"++++++++++++++++++++++++++++++++++++++++++++++++",
"++++++++++++++++++++++++++++++++++++++++++++++++",
"+++++++++++++@@+++++++++++++++++++++++++++++++++",
"++++++++++++++++++++++++++++++++++++++++++++++++",
"+@++++++++++++++++++++++++++++++++++++++++++++++",
"++++++++++++++++++++++ooooooo+++++++++++++++++++",
"++++++++++++++++++++oooooooooo++++++++++++++++++",
"+++++++++++++++++++ooooo###oXXXXX+++++++++++++++",
"++++++++++++++++++      ##XXXoooXXX+++++++++++++",
"+++++++++++++++   oooooO  XXooo+ooXX++++++++++++",
"++++++++++++++ OOOOOOOOOoXXo++o+++oX  ++++++++++",
"+++++++++++++ OOOOOOOOOOoXX+++oo+++ X+++++++++++",
"++++++++++++ OOOOOOOOOOOOXX+++o  + XXX++++++++++",
"+++++++++++ OOOOOOOOOOOOOOo++  o+++++  +++++++++",
"+++++++++++ OOOOOOOOOOOOOOo +++o +++  ++++++++++",
"++++++++++ OOOOOOOOOOOOOOOo +++ ++++++X+++++++++",
"+ ++++++++ OOOOOOOOOOOOOOOo ++ oo++++   ++++++++",
" o ++++++ OOOOOOOOOOOOOOOOO ++++o+++++X+++++++++",
" oo +++++ OOOOOOOOOOOOOOOO ++++   ++++X+++++++++",
" ooo ++++ OOOOOOOOOOOOOOOO +++++oo+++   ++++++++",
"+ ooo +++ OOOOOOOOOOOOOOO +++++++o++++X+++++@+++",
"++ ooo   OOOOOOOOOOOOOOOO +++++++++++++++++@@+++",
"+++ oooo OOOOOOOOOOOOOOO ++++++++++++++++++@@+++",
"++++ ooo OOOOOOOOOOOOOOO +++++++   +++++++++@+++",
"++++ ooo OOOOOOOOOOOOOO +++++++ OOO.++++++++@+++",
"+++++ oo OOOOOOOOOOOOOO ++       OO +++++++@++++",
"++++++  OOOOOOOOOOOOOO    OOOOOooO.++++++++@++++",
"+++++++ OOOOOOOOOOOOOOOOOOOOOOO    +++++++++++++",
"+++++++ OOooOOOOOOOOOOOOoooO   ++++++++++++@++++",
"+++++++ OOOOOOOOOOOOOO      +++++++++++++++@++++",
"+++++++ OOOOOOOOOOOOO   ++++++++++++++++++@+++++",
"+++++++ OOOOOOOOOOOOOO +++++++++++++++++++@+++++",
"+++++++ OOoOOOOOOOOOOO +++++++++++++++++++@+++++",
"+++++++ OOOoOOOOOOOOOO +++++++++++++++++++@+++++",
"+++++++ OOOOOOOOOOOOOO +++++++++++++++++++@+++++",
"+++++++ OOOOOOOOOOOOO ++++++++++++++++++++++++++",
"+++++++ OOOOOOoOOOoOO +++++++++++++++++++@++++++",
"++++++++ OOOOOOoOoOOO ++++++++++++++++++++++++++",
"++++++++ OOOOOOOoOOOO +++++++++++++++++++@++++++",
"++++++++ OOOOOOOOOOOO +++++++++++++++++++@++++++",
"+++++++++ OOOOOOOOOO ++++++++++++++++++++@++++++",
"+++++++++  OOoooooOO +++++++++++++++++++++++++++",
"+++++++++ o        O +++++++++++++++++++++++++++",
"+++++++++ oo +++++ OO ++++++++++++++++++++++++++",
"+++++++++ oo +++++ OO ++++++++++++++++++++++++++",
"+++++++++ o +++++++ OO +++++++++++++++++++++++++",
"+++++++++ o +++++++ OO +++++++++++++++++++++++++",
"++++++++++ +++++++++   +++++++++++++++++++++++++"
};
